# xmcd
#
# Track frame offsets: 
#        150
#        11563
#        34582
#        53619
#        76551
#        98430
#        112348
#        130637
#        149508
#        162478
#        182522
#        198084
#        230936
#        253034
#
# Disc length: 3559 seconds
#
# Revision: 0
# Processed by: cddbd v1.5.1PL2 Copyright (c) Steve Scherf et al.
# Submitted via: ExactAudioCopy v0.95b4
#
DISCID=b00de50e
DTITLE=Saturday Nite Fish Fry - Rhythm and Soul
DYEAR=2004
DGENRE=Blues
TTITLE0=Ain't I Talkin' To You Baby
TTITLE1=John The Revelator
TTITLE2=That's How I Feel About You
TTITLE3=Something On My Mind
TTITLE4=Easy, Easy, Easy
TTITLE5=Down By The River
TTITLE6=Give
TTITLE7=I Can't Stop Lovin'
TTITLE8=Don't Freeze On Me
TTITLE9=I Can't Be Satisfied
TTITLE10=I Just Can't Stand It No More
TTITLE11=Maybelle's Blues
TTITLE12=I'll Miss Your Smile
TTITLE13=Lady Be Good
EXTD=
EXTT0=
EXTT1=
EXTT2=
EXTT3=
EXTT4=
EXTT5=
EXTT6=
EXTT7=
EXTT8=
EXTT9=
EXTT10=
EXTT11=
EXTT12=
EXTT13=
PLAYORDER=
